<svg width="466" height="460" viewBox="0 0 466 460" fill="none" xmlns="http://www.w3.org/2000/svg">
<path d="M184.334 216.966H174.494V259.23H192.089L184.334 216.966Z" fill="#F2DBC6"/>
<path d="M173.331 259.23H168.081L170.32 160.406L169.086 214.922L173.686 211.378L173.331 259.23Z" fill="#B08F79"/>
<path d="M171.074 229.514C160.415 230.671 157.194 223.804 157.442 217.942C157.691 212.08 162.482 207.452 162.482 207.452C162.482 207.452 161.243 202.9 168.264 201.357C168.264 201.357 164.298 189.632 174.047 188.938C183.794 188.243 186.687 203.517 184.291 206.833C184.291 206.833 186.932 206.68 187.347 208.918C187.76 211.154 185.364 213.623 185.364 213.623C185.364 213.623 188.585 212.234 190.898 215.783C193.701 220.079 186.823 233.345 171.074 229.514Z" fill="#9BA32B"/>
<path d="M186.947 211.281C187.281 210.545 187.494 209.716 187.347 208.918C186.932 206.68 184.291 206.833 184.291 206.833C186.687 203.517 183.794 188.243 174.047 188.938C164.298 189.632 168.264 201.357 168.264 201.357C164.928 202.09 163.457 203.503 162.832 204.782C164.492 211.793 169.927 216.935 176.383 216.935C180.593 216.935 184.37 214.746 186.947 211.281Z" fill="#AFBD34"/>
<path d="M175.931 213.164L175.474 213.083C174.743 225.379 175.228 239.539 175.145 255.047H176.949C175.685 239.612 175.359 224.292 175.931 213.164Z" fill="#752E38"/>
<path d="M175.491 229.162C172.977 221.59 165.676 217.407 165.585 217.359L165.628 217.165C165.721 217.215 173.177 220.904 175.718 228.591L175.491 229.162Z" fill="#752E38"/>
<path d="M175.748 219.691C177.557 213.045 182.551 211.489 182.601 211.469L182.57 211.342C182.517 211.36 177.211 213.088 175.497 218.907L175.748 219.691Z" fill="#752E38"/>
<path d="M175.549 225.528C179.556 219.542 185.484 219.652 185.545 219.648L185.552 219.515C185.49 219.519 179.263 219.646 175.538 224.71L175.549 225.528Z" fill="#752E38"/>
<path d="M175.422 219.282C174.049 215.245 170.95 214.612 170.919 214.606L170.929 214.524C170.959 214.529 174.164 215.004 175.612 218.392L175.422 219.282Z" fill="#752E38"/>
<path d="M177.885 222.392C180.629 219.019 179.4 216.289 179.387 216.261L179.464 216.219C179.477 216.248 180.905 218.968 178.773 222.022L177.885 222.392Z" fill="#752E38"/>
<path d="M179.906 221.186C183.403 220.554 185.569 221.792 185.594 221.809L185.669 221.773C185.642 221.755 183.546 220.439 180.532 220.867L179.906 221.186Z" fill="#752E38"/>
<path d="M171.515 222.257C168.431 220.149 164.207 220.96 164.162 220.971L164.085 220.881C164.132 220.868 168.163 219.546 171.391 221.81L171.515 222.257Z" fill="#752E38"/>
<path d="M198.106 252.483C198.197 251.814 198.26 251.138 198.26 250.448C198.26 241.242 189.812 233.781 179.392 233.781C168.974 233.781 160.527 241.242 160.527 250.448C160.527 251.138 160.589 251.814 160.681 252.483H198.106Z" fill="#AFBD34"/>
<path d="M198.26 250.449C198.26 241.242 189.812 233.781 179.392 233.781C178.246 233.781 177.126 233.876 176.033 234.048C175.254 234.653 174.727 235.358 174.506 236.167C173.211 240.899 182.744 247.26 195.8 250.371C196.62 250.567 197.435 250.745 198.24 250.904L198.26 250.449Z" fill="#C6D038"/>
<path d="M142.928 78.134C142.928 78.134 151.421 78.134 157.71 78.134H157.957C167.353 78.2417 168.074 97.5669 158.715 98.6973C158.377 98.7512 158.042 98.7692 157.71 98.7692C151.835 98.7692 142.928 98.7692 142.928 98.7692C139.499 98.7692 139.499 78.134 142.928 78.134Z" fill="#D3B59A"/>
<path d="M141.046 79.5156L137.073 90.6047L89.0345 57.2475L89.8185 56.9783L141.046 79.5156Z" fill="#EBCBAC"/>
<path d="M147.78 85.2039H151.781L164.162 327.74H147.78V85.2039Z" fill="#EBCBAC"/>
<path d="M154.399 136.487L151.781 85.2039H147.78V134.961L154.399 136.487Z" fill="#D3B59A"/>
<path d="M137.697 94.1397L149.023 92.8298L134.875 185.652L133.012 185.598L137.697 94.1397Z" fill="#EBCBAC"/>
<path d="M151.381 89.2412L142.207 81.4715L195.013 0.456062L195.79 1.08409L151.381 89.2412Z" fill="#EBCBAC"/>
<path d="M138.494 79.9283L135.006 90.6047L88.8209 57.8936L89.0237 57.2296L138.494 79.9283Z" fill="#FDE3C6"/>
<path d="M135.629 94.1395L146.955 92.8296L133.998 185.67L132.178 185.598L135.629 94.1395Z" fill="#FDE3C6"/>
<path d="M149.311 89.2412L140.14 81.4715L193.497 0.258759L195.074 0.474113L149.311 89.2412Z" fill="#FDE3C6"/>
<path d="M133.739 88.8822C133.739 94.8933 138.089 99.7738 143.459 99.7738C148.826 99.7738 153.179 94.8933 153.179 88.8822C153.179 82.8711 148.826 77.9904 143.459 77.9904C138.089 77.9904 133.739 82.8711 133.739 88.8822Z" fill="#FDE3C6"/>
<path d="M136.323 88.3082C136.323 92.1122 138.715 95.1805 141.667 95.1805C144.617 95.1805 147.008 92.1122 147.008 88.3082C147.008 84.5221 144.617 81.4358 141.667 81.4358C138.715 81.4358 136.323 84.5221 136.323 88.3082Z" fill="#6A5256"/>
<path d="M139.987 88.308C139.987 90.4792 141.356 92.2375 143.045 92.2375C144.733 92.2375 146.102 90.4792 146.102 88.308C146.102 86.1368 144.733 84.3783 143.045 84.3783C141.356 84.3783 139.987 86.1368 139.987 88.308Z" fill="#FDE3C6"/>
<path d="M105.544 65.0709V69.7363L115.677 76.9137V69.8798L105.544 65.0709Z" fill="#F03761"/>
<path d="M138.544 153.318L133.513 150.213L132.84 168.067L136.185 170.113L138.544 153.318Z" fill="#F03761"/>
<path d="M184.604 20.7864L182.436 17.0899L172.913 31.5883L176.174 37.1329L184.604 20.7864Z" fill="#F03761"/>
<path d="M136.571 219.034H126.73V261.299H144.326L136.571 219.034Z" fill="#F2DBC6"/>
<path d="M125.568 261.299H120.318L122.557 162.474L121.323 216.991L125.923 213.447L125.568 261.299Z" fill="#B08F79"/>
<path d="M99.7168 199.68L100.226 199.461C100.42 217.274 100.289 237.784 99.9195 260.249H97.9942C98.9775 237.631 99.828 215.803 99.7168 199.68Z" fill="#752E38"/>
<path d="M91.8662 241.426C84.2186 205.718 84.3316 168.462 98.6417 169.531C102.771 169.84 108.224 174.315 109.709 190.822C109.709 190.822 114.918 187.845 118.303 191.748C123.919 198.227 115.825 235.873 107.233 243.278C100.33 249.226 93.1887 247.597 91.8662 241.426Z" fill="#9BA32B"/>
<path d="M108.615 212.828C100.023 214.021 91.1126 202.756 88.7117 187.667C88.4336 185.91 88.2578 184.181 88.1753 182.49C85.3473 196.293 87.0986 219.16 91.8662 241.426C93.1887 247.597 100.33 249.226 107.233 243.278C114.477 237.034 121.371 209.286 119.984 196.856C118.667 205.622 114.472 212.017 108.615 212.828Z" fill="#8B8F27"/>
<path d="M123.311 231.583C112.652 232.74 109.431 225.873 109.679 220.011C109.928 214.149 114.719 209.521 114.719 209.521C114.719 209.521 113.479 204.969 120.501 203.426C120.501 203.426 116.535 191.701 126.284 191.007C136.031 190.312 138.923 205.586 136.528 208.902C136.528 208.902 139.169 208.749 139.584 210.987C139.997 213.223 137.601 215.692 137.601 215.692C137.601 215.692 140.822 214.303 143.135 217.852C145.938 222.148 139.06 235.414 123.311 231.583Z" fill="#9BA32B"/>
<path d="M139.184 213.35C139.518 212.614 139.731 211.785 139.584 210.987C139.169 208.749 136.528 208.902 136.528 208.902C138.924 205.586 136.031 190.312 126.284 191.006C116.535 191.701 120.501 203.425 120.501 203.425C117.165 204.159 115.694 205.571 115.069 206.851C116.729 213.861 122.164 219.004 128.62 219.004C132.83 219.004 136.607 216.815 139.184 213.35Z" fill="#AFBD34"/>
<path d="M128.168 215.232L127.71 215.151C126.98 227.448 127.465 241.608 127.382 257.116H129.185C127.922 241.681 127.596 226.361 128.168 215.232Z" fill="#752E38"/>
<path d="M127.728 231.231C125.214 223.659 117.913 219.476 117.822 219.427L117.865 219.234C117.958 219.284 125.414 222.973 127.954 230.66L127.728 231.231Z" fill="#752E38"/>
<path d="M127.985 221.76C129.794 215.114 134.788 213.558 134.838 213.538L134.807 213.411C134.753 213.429 129.448 215.157 127.734 220.976L127.985 221.76Z" fill="#752E38"/>
<path d="M127.786 227.597C131.793 221.611 137.721 221.72 137.782 221.717L137.789 221.584C137.727 221.588 131.5 221.715 127.775 226.779L127.786 227.597Z" fill="#752E38"/>
<path d="M127.659 221.351C126.286 217.314 123.187 216.68 123.156 216.675L123.166 216.592C123.196 216.598 126.401 217.073 127.849 220.461L127.659 221.351Z" fill="#752E38"/>
<path d="M130.122 224.461C132.866 221.087 131.637 218.358 131.624 218.329L131.701 218.288C131.714 218.317 133.142 221.037 131.01 224.091L130.122 224.461Z" fill="#752E38"/>
<path d="M132.143 223.255C135.64 222.623 137.806 223.861 137.831 223.877L137.906 223.842C137.879 223.824 135.783 222.508 132.769 222.935L132.143 223.255Z" fill="#752E38"/>
<path d="M123.752 224.326C120.668 222.218 116.444 223.029 116.399 223.039L116.322 222.95C116.368 222.937 120.4 221.615 123.628 223.879L123.752 224.326Z" fill="#752E38"/>
<path d="M50.5422 248.078C29.3885 235.494 30.3197 226.695 41.181 221.941C37.4738 221.853 29.9537 216.838 49.2826 200.998C49.2826 200.998 44.8129 195.717 58.8896 187.269C58.8896 187.269 65.2793 205.134 57.8327 209.094C57.8327 209.094 66.015 217.805 60.7557 221.853C68.4643 219.478 69.191 229.28 50.5422 248.078Z" fill="#9BA32B"/>
<path d="M60.7557 221.853C64.6674 218.842 61.1433 213.253 59.0816 210.585C52.4102 217.888 43.9838 221.877 37.4685 220.163C38.4302 221.385 39.9985 221.913 41.181 221.941C30.3197 226.695 29.3885 235.494 50.5422 248.078C69.191 229.28 68.4643 219.478 60.7557 221.853Z" fill="#8B8F27"/>
<path d="M85.0173 254.552L85.0495 254.087C85.0495 251.988 83.2265 250.283 80.9781 250.283C78.728 250.283 76.9031 251.988 76.9031 254.087L76.9372 254.552H85.0173Z" fill="#9BA32B"/>
<path d="M100.976 255.342C101.023 255.004 101.052 254.662 101.052 254.312C101.052 249.652 97.0053 245.873 92.0152 245.873C87.0251 245.873 82.9788 249.652 82.9788 254.312C82.9788 254.662 83.0093 255.004 83.0523 255.342H100.976Z" fill="#9BA32B"/>
<path d="M116.304 254.552C116.331 254.355 116.348 254.156 116.348 253.951C116.348 251.236 113.989 249.036 111.082 249.036C108.175 249.036 105.819 251.236 105.819 253.951C105.819 254.156 105.835 254.355 105.86 254.552H116.304Z" fill="#9BA32B"/>
<path d="M65.9449 254.579L65.9772 254.112C65.9772 252.002 64.1469 250.291 61.886 250.291C59.6251 250.291 57.7949 252.002 57.7949 254.112L57.8271 254.579H65.9449Z" fill="#AFBD34"/>
<path d="M150.343 254.552C150.434 253.883 150.497 253.206 150.497 252.517C150.497 243.31 142.049 235.849 131.629 235.849C121.211 235.849 112.764 243.31 112.764 252.517C112.764 253.206 112.826 253.883 112.918 254.552H150.343Z" fill="#AFBD34"/>
<path d="M150.497 252.517C150.497 243.311 142.049 235.849 131.629 235.849C130.483 235.849 129.363 235.945 128.27 236.117C127.491 236.722 126.964 237.427 126.743 238.236C125.448 242.968 134.981 249.329 148.037 252.44C148.857 252.636 149.672 252.813 150.477 252.973L150.497 252.517Z" fill="#C6D038"/>
<path d="M74.6691 243.229C57.0449 238.5 48.4552 219.883 73.1277 199.106L71.3638 191.905C71.3638 191.905 108.593 216.797 92.8424 229.138C97.6889 233.768 88.457 243.465 74.6691 243.229Z" fill="#AFBD34"/>
<path d="M71.3638 191.906L73.1277 199.106C65.9412 205.157 61.581 211.024 59.4403 216.418C60.3841 217.606 61.4284 218.765 62.5786 219.88C72.5032 229.501 86.2014 232.216 93.1743 225.945C94.8754 224.414 96.0166 222.487 96.6284 220.312C94.9202 207.656 71.3638 191.906 71.3638 191.906Z" fill="#BDC83C"/>
<path d="M77.6244 216.992L77.9743 216.849C78.3439 228.649 78.5234 242.234 78.5647 257.116H77.2261C77.6119 242.133 77.9133 227.672 77.6244 216.992Z" fill="#752E38"/>
<path d="M77.7879 240.12C74.2117 232.928 66.3094 230.913 66.2286 230.895L66.2501 230.721C66.3326 230.737 74.4522 232.18 78.1216 239.56L77.7879 240.12Z" fill="#752E38"/>
<path d="M78.4051 237.294C80.9692 231.545 86.6358 229.933 86.6933 229.919L86.6807 229.779C86.6197 229.793 80.797 230.945 78.1664 236.845L78.4051 237.294Z" fill="#752E38"/>
<path d="M77.9383 229.357C76.4436 225.864 73.1438 225.067 73.1079 225.06L73.1187 224.972C73.151 224.979 76.5442 225.483 78.0784 229.068L77.9383 229.357Z" fill="#752E38"/>
<path d="M306.836 161.751H255.697V226.348H306.836V161.751Z" fill="#382426"/>
<path d="M440.897 167.922H389.844V237.05H440.897V167.922Z" fill="#382426"/>
<path d="M347.209 161.751H329.714V226.348H347.209V161.751Z" fill="#382426"/>
<path d="M213.641 167.922H195.672V237.05H213.641V167.922Z" fill="#382426"/>
<path d="M450.418 160.406H332.035L290.645 215.593H409.028L450.418 160.406Z" fill="#FDE3C6"/>
<path d="M447.504 161.961H333.621L294.563 214.039H408.444L447.504 161.961Z" fill="#6FCFD5"/>
<path d="M437.581 164.784H335.351L317.915 188.03H420.147L437.581 164.784Z" fill="#80D5D9"/>
<path d="M435.189 211.999C435.189 209.079 433.958 206.714 432.44 206.714C430.924 206.714 429.693 209.079 429.693 211.999C429.693 214.918 430.924 217.283 432.44 217.283C433.958 217.283 435.189 214.918 435.189 211.999Z" fill="#D3B59A"/>
<path d="M360.569 161.15H358.296L318.021 214.85H320.295L360.569 161.15Z" fill="#FDE3C6"/>
<path d="M388.633 161.15H386.36L346.083 214.85H348.357L388.633 161.15Z" fill="#FDE3C6"/>
<path d="M417.172 161.15H414.897L374.622 214.85H376.896L417.172 161.15Z" fill="#FDE3C6"/>
<path d="M311.845 160.406H193.462L152.072 215.593H270.455L311.845 160.406Z" fill="#FDE3C6"/>
<path d="M308.931 161.961H195.049L155.99 214.039H269.871L308.931 161.961Z" fill="#6FCFD5"/>
<path d="M297.518 164.784H195.288L177.852 188.03H280.084L297.518 164.784Z" fill="#80D5D9"/>
<path d="M221.996 161.15H219.722L179.447 214.85H181.721L221.996 161.15Z" fill="#FDE3C6"/>
<path d="M250.06 161.15H247.786L207.511 214.85H209.784L250.06 161.15Z" fill="#FDE3C6"/>
<path d="M278.599 161.15H276.324L236.049 214.85H238.323L278.599 161.15Z" fill="#FDE3C6"/>
<path d="M50.6591 347.814C50.5012 338.772 42.9092 331.584 33.7059 331.762C24.4991 331.939 17.1655 339.415 17.3234 348.456C17.4813 357.498 25.0715 364.686 34.2765 364.509C43.4816 364.329 50.817 356.856 50.6591 347.814Z" fill="#98992A"/>
<path d="M33.3382 353.014C33.182 343.971 25.5919 336.784 16.385 336.96C7.17996 337.138 -0.155402 344.613 0.00250222 353.655C0.160406 362.697 7.75235 369.885 16.9574 369.707C26.1625 369.53 33.4961 362.056 33.3382 353.014Z" fill="#98992A"/>
<path d="M29.1846 365.582C34.469 363.202 36.319 358.236 36.3961 358.026L35.5707 357.703C35.5528 357.751 33.7638 362.526 28.8329 364.744L29.1846 365.582Z" fill="#84332F"/>
<path d="M28.7733 370.884C23.4871 368.507 21.6371 363.538 21.56 363.33L22.3854 363.007C22.4033 363.055 24.1923 367.828 29.1232 370.048L28.7733 370.884Z" fill="#84332F"/>
<path d="M29.3515 351.36C29.2151 343.549 22.6585 337.342 14.7077 337.495C6.75687 337.647 0.422796 344.103 0.557373 351.912C0.695539 359.723 7.25032 365.932 15.2011 365.777C23.1519 365.625 29.4879 359.169 29.3515 351.36Z" fill="#ABB034"/>
<path d="M29.1163 351.268L28.5295 352.212L28.1456 396.387H29.8215L29.1163 351.268Z" fill="#84332F"/>
<path d="M40.035 340.263C39.2042 330.154 30.4675 321.894 20.5178 321.819C10.5699 321.744 3.17889 329.879 4.00968 339.991C4.84047 350.102 13.579 358.358 23.5269 358.433C33.4748 358.508 40.8658 350.375 40.035 340.263Z" fill="#98992A"/>
<path d="M43.5414 336.402C43.353 325.627 34.3076 317.062 23.3369 317.274C12.3679 317.484 3.6276 326.391 3.81421 337.168C4.00262 347.943 13.048 356.508 24.0187 356.296C34.9877 356.086 43.728 347.179 43.5414 336.402Z" fill="#ABB034"/>
<path d="M9.15228 326.723C12.2206 332.842 19.3819 337.055 27.6557 336.895C32.7373 336.798 37.3399 335.067 40.7994 332.304C39.2258 324.381 32.0573 318.478 23.5502 318.641C17.4476 318.758 12.1435 321.972 9.15228 326.723Z" fill="#BEBD34"/>
<path d="M28.6678 394.607C23.8194 394.647 16.9076 397.966 16.9076 397.966H40.0154C40.0154 397.966 33.8069 394.568 28.6678 394.607Z" fill="#93A339"/>
<path d="M203.853 251.017H45.3159V260.235H203.853V251.017Z" fill="#3C2C2F"/>
<path d="M203.062 254.704H39.7857V397.966H203.062V254.704Z" fill="#FCCB5A"/>
<path d="M239.405 254.704H186.207V397.966H239.405V254.704Z" fill="#F9AF40"/>
<path d="M400.049 312.641H195.689V397.966H400.049V312.641Z" fill="#D83A49"/>
<path d="M391.028 334.559H195.689V336.215H391.028V334.559Z" fill="#922834"/>
<path d="M391.028 347.26H195.689V348.918H391.028V347.26Z" fill="#922834"/>
<path d="M391.028 359.96H195.689V361.618H391.028V359.96Z" fill="#922834"/>
<path d="M391.028 372.66H195.689V374.318H391.028V372.66Z" fill="#922834"/>
<path d="M391.028 385.361H195.689V387.019H391.028V385.361Z" fill="#922834"/>
<path d="M400.049 311.588H195.689V318.435H400.049V311.588Z" fill="#FDE3C6"/>
<path d="M442.447 312.641H388.988V397.966H442.447V312.641Z" fill="#922834"/>
<path d="M255.468 223.628H199.424V316.854H255.468V223.628Z" fill="#382426"/>
<path d="M374.615 295.27C374.468 295.121 370.985 291.584 369.428 287.143L370.007 286.904C371.515 291.202 375.003 294.742 375.037 294.778L374.615 295.27Z" fill="#782321"/>
<path d="M375.67 292.743C375.837 292.596 379.827 289.057 381.615 284.616L380.949 284.378C379.221 288.673 375.225 292.217 375.186 292.251L375.67 292.743Z" fill="#782321"/>
<path d="M374.532 284.909H375.776V302.698H374.532V284.909Z" fill="#782321"/>
<path d="M385.639 285.803L374.532 290.42L363.246 284.627L362.533 241.662L376.219 239.146L387.773 246.361L385.639 285.803Z" fill="#BEBF3E"/>
<path d="M377.859 248.582L376.266 284.968L367.113 285.187L363.779 284.417L362.533 241.661L376.607 239.985L377.859 248.582Z" fill="#DDD63E"/>
<path d="M364.253 302.754L375.272 301.692L386.056 302.754V303.37H364.253V302.754Z" fill="#FDDC92"/>
<path d="M300.088 295.27C299.941 295.121 296.458 291.584 294.901 287.143L295.48 286.904C296.987 291.202 300.474 294.742 300.51 294.778L300.088 295.27Z" fill="#782321"/>
<path d="M301.141 292.743C301.31 292.596 305.301 289.057 307.088 284.616L306.422 284.378C304.694 288.673 300.696 292.217 300.657 292.251L301.141 292.743Z" fill="#782321"/>
<path d="M300.004 284.909H301.249V302.698H300.004V284.909Z" fill="#782321"/>
<path d="M311.113 285.803L300.004 290.42L288.717 284.627L288.007 241.662L301.692 239.146L313.246 246.361L311.113 285.803Z" fill="#BEBF3E"/>
<path d="M311.118 245.763L301.739 284.968L292.584 285.187L289.252 284.417L288.007 241.661L302.078 239.985L311.118 245.763Z" fill="#DDD63E"/>
<path d="M289.726 302.754L300.745 301.692L311.527 302.754V303.37H289.726V302.754Z" fill="#FDDC92"/>
<path d="M264.319 300.093C264.493 299.946 268.599 296.408 270.436 291.965L269.753 291.726C267.974 296.024 263.862 299.566 263.82 299.6L264.319 300.093Z" fill="#782321"/>
<path d="M263.711 297.742C263.512 297.595 258.805 294.057 256.699 289.616L257.483 289.377C259.521 293.673 264.235 297.215 264.282 297.252L263.711 297.742Z" fill="#782321"/>
<path d="M264.203 284.405L263.722 284.862L263.354 306.775H264.707L264.203 284.405Z" fill="#782321"/>
<path d="M268.328 306.377H259.961L257.172 307.176H271.118L268.328 306.377Z" fill="#F9A86F"/>
<path d="M252.369 290.605C261.56 294.699 269.239 294.339 276.668 290.366C276.668 290.366 277.172 252.203 272.765 235.591C272.765 235.591 268.358 231.981 258.035 231.258C252.828 247.929 250.031 271.357 252.369 290.605Z" fill="#BEBF3E"/>
<path d="M269.64 278.548C269.64 278.548 272.139 252.907 271.258 235.087C269.222 234.007 265.186 232.379 258.726 231.929C254.504 245.447 251.933 263.588 252.584 280.037C258.558 281.719 264.084 281.103 269.64 278.548Z" fill="#DDD63E"/>
<path d="M335.03 295.53C334.827 295.39 330.015 292.02 327.86 287.787L328.662 287.559C330.747 291.652 335.566 295.028 335.613 295.062L335.03 295.53Z" fill="#782321"/>
<path d="M335.742 293.292C335.975 293.149 341.491 289.781 343.96 285.548L343.041 285.322C340.653 289.415 335.128 292.788 335.073 292.824L335.742 293.292Z" fill="#782321"/>
<path d="M335.166 280.585L335.729 281.021L336.16 301.896H334.574L335.166 280.585Z" fill="#782321"/>
<path d="M330.33 301.518H340.137L343.404 302.277H327.061L330.33 301.518Z" fill="#F9A86F"/>
<path d="M349.033 286.493C338.263 290.391 329.263 290.048 320.558 286.264C320.558 286.264 319.968 249.906 325.132 234.078C325.132 234.078 330.296 230.639 342.394 229.949C348.495 245.831 351.775 268.151 349.033 286.493Z" fill="#BEBF3E"/>
<path d="M322.471 273.554C322.471 273.554 321.504 246.777 326.898 233.599C329.284 232.569 334.012 231.019 341.584 230.588C337.933 241.891 338.699 258.968 337.933 274.64C330.935 276.242 328.981 275.989 322.471 273.554Z" fill="#DDD63E"/>
<path d="M231.077 297.509C230.932 297.383 227.49 294.344 225.951 290.531L226.523 290.324C228.014 294.015 231.461 297.057 231.495 297.087L231.077 297.509Z" fill="#782321"/>
<path d="M231.585 295.492C231.753 295.365 235.695 292.325 237.461 288.512L236.804 288.306C235.096 291.997 231.147 295.038 231.107 295.071L231.585 295.492Z" fill="#782321"/>
<path d="M231.174 284.035L231.576 284.428L231.884 303.249H230.752L231.174 284.035Z" fill="#782321"/>
<path d="M227.716 302.908H234.727L237.065 303.594H225.38L227.716 302.908Z" fill="#F9A86F"/>
<path d="M241.088 289.361C233.388 292.878 226.954 292.567 220.731 289.154C220.731 289.154 220.307 256.375 224 242.104C224 242.104 227.691 239.004 236.342 238.383C240.704 252.702 243.049 272.826 241.088 289.361Z" fill="#BEBF3E"/>
<path d="M222.096 277.696C222.096 277.696 221.407 253.555 225.261 241.674C226.97 240.745 230.348 239.349 235.762 238.959C233.153 249.149 233.7 264.545 233.153 278.676C228.148 280.12 226.752 279.892 222.096 277.696Z" fill="#DDD63E"/>
<path d="M425.351 298.421H215.023C206.598 298.421 199.771 305.25 199.771 313.673V316.196H440.603V313.673C440.603 305.25 433.775 298.421 425.351 298.421Z" fill="#ABB034"/>
<path d="M365.353 309.323C371.355 309.323 376.383 305.196 377.788 299.63H216.426C210.422 299.63 205.396 303.757 203.99 309.323H365.353Z" fill="#DDD63E"/>
<path d="M442.184 218.362H195.689V226.262H442.184V218.362Z" fill="#493639"/>
<path d="M385.563 222.839H380.032V319.752H385.563V222.839Z" fill="#493639"/>
<path d="M201.219 222.839H195.689V319.752H201.219V222.839Z" fill="#493639"/>
<path d="M442.184 222.839H436.653V319.752H442.184V222.839Z" fill="#493639"/>
<path d="M442.184 218.362H388.724V226.262H442.184V218.362Z" fill="#493639"/>
<path d="M442.448 313.561H195.689V324.491H442.448V313.561Z" fill="#493639"/>
<path d="M442.447 218.362H385.431V324.491H442.447V218.362Z" fill="#382426"/>
<path d="M440.802 223.628H388.444V316.854H440.802V223.628Z" fill="#5BB6CD"/>
<path d="M437.968 228.668H391.274L437.968 311.813V228.668Z" fill="#63CBDB"/>
<path d="M448.701 398.23C448.701 398.23 446.594 395.727 447.56 380.453L446.332 382.165C447.122 392.434 445.805 398.23 445.805 398.23H448.701Z" fill="#574246"/>
<path d="M371.936 335.815H349.089V361.756H371.936V335.815Z" fill="#3C2C2F"/>
<path d="M369.909 337.724H353.743V359.845H369.909V337.724Z" fill="#6FCFD5"/>
<path d="M366.805 340.489H358.473V357.08H366.805V340.489Z" fill="#8FDAE9"/>
<path d="M371.26 351.288H352.618V352.472H371.26V351.288Z" fill="#3C2C2F"/>
<path d="M322.952 335.815H300.106V361.756H322.952V335.815Z" fill="#3C2C2F"/>
<path d="M320.924 337.724H304.761V359.845H320.924V337.724Z" fill="#6FCFD5"/>
<path d="M317.82 340.489H309.489V357.08H317.82V340.489Z" fill="#8FDAE9"/>
<path d="M322.275 351.288H303.634V352.472H322.275V351.288Z" fill="#3C2C2F"/>
<path d="M122.213 335.815H52.0303V387.957H122.213V335.815Z" fill="#3C2C2F"/>
<path d="M120.187 337.724H56.6847V386.05H120.187V337.724Z" fill="#6FCFD5"/>
<path d="M69.7463 340.49H61.4133V383.285H69.7463V340.49Z" fill="#8FDAE9"/>
<path d="M121.538 351.288H55.5597V352.472H121.538V351.288Z" fill="#3C2C2F"/>
<path d="M76.2596 274.191H52.0303V326.335H76.2596V274.191Z" fill="#3C2C2F"/>
<path d="M74.4812 276.101H56.1123V324.426H74.4812V276.101Z" fill="#6FCFD5"/>
<path d="M65.9888 278.867H58.6803V321.661H65.9888V278.867Z" fill="#8FDAE9"/>
<path d="M122.475 274.191H98.2459V326.335H122.475V274.191Z" fill="#3C2C2F"/>
<path d="M120.697 276.101H102.328V324.426H120.697V276.101Z" fill="#6FCFD5"/>
<path d="M112.204 278.867H104.896V321.661H112.204V278.867Z" fill="#8FDAE9"/>
<path d="M168.691 274.191H144.461V326.335H168.691V274.191Z" fill="#3C2C2F"/>
<path d="M166.912 276.101H148.543V324.426H166.912V276.101Z" fill="#6FCFD5"/>
<path d="M158.418 278.867H151.111V321.661H158.418V278.867Z" fill="#8FDAE9"/>
<path d="M288.19 335.815H207.149V397.966H288.19V335.815Z" fill="#3C2C2F"/>
<path d="M285.424 337.923H211.621V397.966H285.424V337.923Z" fill="#F9AF40"/>
<path d="M231.504 339.533H213.44V393.986L231.504 339.533Z" fill="#FCCB5A"/>
<path d="M255.839 336.737H241.206V340.68H255.839V336.737Z" fill="#3C2C2F"/>
<path d="M168.691 335.815H136.835V397.966H168.691V335.815Z" fill="#3C2C2F"/>
<path d="M166.218 337.923H141.307V397.966H166.218V337.923Z" fill="#F9AF40"/>
<path d="M161.188 339.533H143.125V393.986L161.188 339.533Z" fill="#FCCB5A"/>
<path d="M161.77 343.594H147.137V350.168H161.77V343.594Z" fill="#3C2C2F"/>
<path d="M461.504 349.171C470.441 335.327 466.757 316.391 444.086 314.391C415.112 311.837 396.621 336.361 404.222 354.084C408.681 364.485 421.671 368.586 433.461 366.757C444.104 365.106 455.546 358.395 461.504 349.171Z" fill="#98992A"/>
<path d="M435.826 361.78C441.602 358.353 443.013 352.618 443.068 352.376L442.065 352.149C442.053 352.207 440.685 357.719 435.295 360.915L435.826 361.78Z" fill="#65232C"/>
<path d="M435.202 367.315C429.02 364.685 426.858 359.185 426.768 358.952L427.732 358.596C427.753 358.648 429.846 363.935 435.613 366.391L435.202 367.315Z" fill="#65232C"/>
<path d="M435.779 348.595L434.645 350.247V395.332H436.605L435.779 348.595Z" fill="#65232C"/>
<path d="M451.217 343.931C458.179 333.149 455.309 318.399 437.651 316.842C415.083 314.85 400.678 333.953 406.6 347.758C410.074 355.862 420.19 359.052 429.374 357.629C437.666 356.343 446.576 351.116 451.217 343.931Z" fill="#ABB034"/>
<path d="M448.809 326.877C449.399 326.423 449.955 325.943 450.481 325.437C447.983 322.099 443.68 319.677 437.291 319.112C427.759 318.27 419.799 321.48 414.455 326.431C417.538 329.059 421.5 330.927 425.598 331.772C433.253 333.348 442.616 331.668 448.809 326.877Z" fill="#BEBF3E"/>
<path d="M434.911 393.83C428.938 393.877 420.423 397.966 420.423 397.966H448.886C448.886 397.966 441.24 393.78 434.911 393.83Z" fill="#93A339"/>
<path d="M237.204 360.899C234.709 346.456 229.743 340.45 224.016 340.316C218.289 340.182 213.969 345.969 216.465 360.412C218.96 374.856 225.626 386.674 231.354 386.805C237.081 386.943 239.701 375.342 237.204 360.899Z" fill="#E64430"/>
<path d="M217.296 375.994C219.154 366.372 222.624 359.311 221.617 358.546C221.135 358.18 218.718 359.255 216.821 362.9C214.756 366.869 213.195 373.541 212.537 375.908C211.276 380.454 216.423 380.517 217.296 375.994Z" fill="#503741"/>
<path d="M221.905 358.877C221.676 358.694 216.314 366.846 214.995 373.272C214.509 375.639 213.643 377.578 212.343 377.378C212.431 380.368 216.558 379.962 217.357 376.108C219.314 366.674 222.913 359.686 221.905 358.877Z" fill="#3F2A33"/>
<path d="M216.761 376.285C216.385 374.599 214.949 373.484 213.554 373.792C212.159 374.107 211.332 375.725 211.708 377.412C212.083 379.098 213.519 380.213 214.914 379.904C216.31 379.596 217.136 377.972 216.761 376.285Z" fill="#FDE5B7"/>
<path d="M211.874 366.645C211.797 366.651 211.722 366.668 211.643 366.668C210.578 366.668 209.715 365.856 209.715 364.856C209.715 363.856 210.578 363.045 211.643 363.045C211.722 363.045 211.797 363.057 211.874 363.067V362.008C211.797 362.002 211.721 361.997 211.643 361.997C209.963 361.997 208.6 363.276 208.6 364.856C208.6 366.434 209.963 367.714 211.643 367.714C211.721 367.714 211.797 367.709 211.874 367.703V366.645Z" fill="#E8C69B"/>
<path d="M229.846 396.697C229.731 394.507 226.391 383.221 226.391 383.221C226.391 383.221 218.907 378.155 213.264 395.657C207.622 413.164 213.84 432.163 224.204 457.606H224.78C224.434 451.392 229.961 398.881 229.846 396.697Z" fill="#F14376"/>
<path d="M229.846 396.697C229.731 394.507 226.392 383.221 226.392 383.221C226.392 383.221 218.945 378.184 213.308 395.531C226.552 404.141 224.717 445.8 224.711 457.606H224.78C224.434 451.392 229.961 398.881 229.846 396.697Z" fill="#E73269"/>
<path d="M213.88 392.666C220.252 395.119 229.925 395.582 229.925 395.582C226.624 380.379 226.481 371.248 226.7 368.407C226.946 365.223 223.492 365.233 221.404 368.481C218.64 372.781 213.88 392.666 213.88 392.666Z" fill="#503741"/>
<path d="M220.524 378.498C223.096 378.681 225.443 388.058 224.397 395.056C227.558 395.468 229.924 395.582 229.924 395.582C226.623 380.379 226.481 371.248 226.699 368.407C226.945 365.223 223.492 365.233 221.403 368.481C220.162 370.414 218.52 375.479 217.086 380.482C218.261 379.161 219.46 378.424 220.524 378.498Z" fill="#3F2A33"/>
<path d="M215.622 375.107C215.964 375.81 225.274 376.279 225.764 375.439C226.258 374.598 227.93 359.69 227.621 359.026C227.309 358.358 221.569 357.773 220.679 358.855C219.767 359.966 214.894 373.615 215.622 375.107Z" fill="#503741"/>
<path d="M227.621 359.027C227.526 358.823 223.36 373.753 222.957 374.467C222.634 375.033 217.927 375.039 214.825 374.765C214.825 374.942 214.847 375.079 214.893 375.171C215.234 375.874 225.329 376.874 225.817 376.045C226.31 375.205 227.931 359.691 227.621 359.027Z" fill="#3F2A33"/>
<path d="M224.171 377.269C226.276 367.315 226.165 359.089 227.239 358.803C227.753 358.666 229.254 360.744 229.394 365.036C229.547 369.711 228.302 376.732 227.942 379.27C227.251 384.136 223.183 381.952 224.171 377.269Z" fill="#503741"/>
<path d="M229.394 365.036C229.332 363.136 229.003 361.673 228.612 360.641C228.736 361.98 228.804 363.424 228.804 364.93C228.804 371.935 227.338 377.612 225.529 377.612C225.092 377.612 224.675 377.275 224.294 376.674C224.253 376.875 224.214 377.069 224.171 377.269C223.182 381.952 227.251 384.136 227.942 379.27C228.302 376.732 229.547 369.711 229.394 365.036Z" fill="#3F2A33"/>
<path d="M215.961 376.365C215.347 372.832 212.558 365.674 212.353 365.463L211.762 365.57C211.585 371.3 211.557 375.108 212.285 377.235C213.064 379.51 216.5 379.459 215.961 376.365Z" fill="#F9A86F"/>
<path d="M215.96 376.365C215.635 374.496 214.703 371.614 213.865 369.281C213.866 369.35 213.869 369.413 213.869 369.476C213.869 372.506 213.009 375.005 211.889 375.451C211.984 376.137 212.113 376.737 212.284 377.235C213.063 379.51 216.499 379.459 215.96 376.365Z" fill="#F68859"/>
<path d="M216.605 360.973H210.476V367.966C210.476 368.584 210.976 369.081 211.594 369.081H215.464C216.08 369.081 216.58 368.584 216.582 367.966L216.605 360.973Z" fill="#E8C69B"/>
<path d="M215.257 361.33H210.738V366.486C210.738 366.943 211.107 367.309 211.562 367.309H214.416C214.87 367.309 215.238 366.943 215.24 366.486L215.257 361.33Z" fill="#F6D5A2"/>
<path d="M228.387 378.046C227.512 375.988 225.49 374.879 223.87 375.565C222.251 376.251 221.647 378.481 222.522 380.539C223.397 382.598 225.419 383.712 227.038 383.021C228.658 382.335 229.261 380.105 228.387 378.046Z" fill="#FDE5B7"/>
<path d="M226.944 377.366C224.1 374.318 216.68 364.641 216.383 364.469L215.744 364.616C218.381 372.146 222.636 379.756 224.524 381.911C225.959 383.552 229.155 379.733 226.944 377.366Z" fill="#F9A86F"/>
<path d="M226.943 377.366C226.381 376.76 225.636 375.896 224.805 374.896C224.772 375.244 224.657 375.513 224.449 375.685C223.64 376.354 221.67 375.405 219.491 373.461C221.447 377.429 223.402 380.63 224.523 381.911C225.959 383.552 229.155 379.733 226.943 377.366Z" fill="#F68859"/>
<path d="M227.312 358.803C226.265 358.34 222.912 358.022 221.363 358.48C221.299 358.48 221.224 358.49 221.145 358.506L220.857 361.874L227.496 358.878C227.429 358.836 227.366 358.808 227.312 358.803Z" fill="#FDE5B7"/>
<path d="M221.921 351.492L221.902 360.192L225.885 358.485L225.276 350.615L221.921 351.492Z" fill="#F2634E"/>
<path d="M218.763 346.765C219.38 344.381 223.235 344.244 224.815 346.512C226.779 349.332 225.518 353.054 225.3 353.614C224.36 356.041 221.14 357.619 221.14 357.619C221.14 357.619 216.995 353.603 218.763 346.765Z" fill="#F9A86F"/>
<path d="M220.744 343.214C220.24 347.901 225.762 351.955 225.762 351.955C225.762 351.955 228.846 348.278 226.722 345.623C224.327 342.627 220.744 343.214 220.744 343.214Z" fill="#E64430"/>
<path d="M217.395 405.605C216.885 415.868 218.889 438.058 224.205 457.606H224.78C221.302 441.454 217.939 417.589 217.395 405.605Z" fill="#E73269"/>
<path d="M225.175 459.167H220.669C220.669 459.167 223.419 457 223.995 457.211C224.571 457.428 225.175 459.167 225.175 459.167Z" fill="#F6D5A2"/>
<path d="M224.008 459.167H228.345C228.345 459.167 224.963 456.811 224.482 457.051C224.001 457.286 224.008 459.167 224.008 459.167Z" fill="#F6D5A2"/>
<path d="M221.954 350.79C221.936 350.414 222.063 350.103 222.237 350.095C222.41 350.089 222.564 350.387 222.581 350.764C222.598 351.14 222.471 351.451 222.298 351.458C222.125 351.466 221.971 351.166 221.954 350.79Z" fill="#50383D"/>
<path d="M218.702 350.926C218.685 350.549 218.811 350.238 218.985 350.232C219.158 350.224 219.312 350.523 219.329 350.899C219.346 351.276 219.219 351.587 219.046 351.594C218.873 351.602 218.719 351.303 218.702 350.926Z" fill="#50383D"/>
<path d="M221.419 348.832L222.823 349.029C222.995 349.054 223.127 349.203 223.117 349.362L223.096 349.679C223.086 349.838 222.937 349.948 222.765 349.924L221.361 349.726C221.189 349.702 221.057 349.553 221.067 349.394L221.088 349.077C221.098 348.917 221.246 348.808 221.419 348.832Z" fill="#E64430"/>
<path d="M218.168 349.453L219.135 349.034C219.254 348.982 219.385 349.064 219.429 349.215L219.515 349.517C219.559 349.669 219.498 349.834 219.379 349.886L218.412 350.305C218.293 350.357 218.162 350.276 218.119 350.124L218.032 349.822C217.989 349.67 218.05 349.505 218.168 349.453Z" fill="#E64430"/>
<path d="M218.167 350.571L220.032 350.482L220.104 352.066C220.123 352.465 219.782 352.805 219.343 352.826L219.068 352.839C218.629 352.86 218.259 352.553 218.24 352.155L218.167 350.571Z" fill="#FEECCF"/>
<path d="M220.57 350.554L222.789 350.454L222.862 352.049C222.881 352.442 222.573 352.774 222.174 352.792L221.397 352.827C221 352.845 220.662 352.542 220.644 352.149L220.57 350.554Z" fill="#FEECCF"/>
<path d="M226.861 350.174L227.003 350.565L218.216 350.961L218.197 350.564L226.861 350.174Z" fill="#FEECCF"/>
<path d="M218.356 350.887L219.705 350.823L219.758 351.969C219.771 352.257 219.525 352.504 219.207 352.518L219.008 352.528C218.691 352.543 218.422 352.322 218.409 352.033L218.356 350.887Z" fill="#F9A86F"/>
<path d="M220.93 350.785L222.459 350.713L222.512 351.859C222.526 352.147 222.244 352.396 221.884 352.413L221.659 352.424C221.299 352.44 220.996 352.22 220.983 351.931L220.93 350.785Z" fill="#F9A86F"/>
<path d="M222.119 351.455C221.946 351.463 221.791 351.163 221.775 350.787L221.778 350.729L222.393 350.701L222.402 350.761C222.419 351.137 222.292 351.448 222.119 351.455Z" fill="#50383D"/>
<path d="M218.868 351.591C218.695 351.598 218.541 351.299 218.524 350.923L218.526 350.879L219.145 350.851L219.151 350.896C219.168 351.273 219.042 351.584 218.868 351.591Z" fill="#50383D"/>
<path d="M220.357 351.312C220.357 351.312 220.397 351.381 220.449 351.49C220.162 352.002 219.827 352.881 220.696 352.78L220.682 352.85C219.2 353.242 220.116 351.63 220.357 351.312Z" fill="#F2634E"/>
<path d="M219.731 353.968C219.739 354.034 219.746 354.1 219.764 354.166C219.951 354.879 220.623 355.326 221.266 355.163C221.854 355.014 222.207 354.407 222.122 353.76L219.731 353.968Z" fill="#3A222C"/>
<path d="M219.932 354.053L219.953 354.206C220.086 354.752 220.678 355.067 221.237 354.926C221.747 354.799 222.045 354.339 221.997 353.84L219.932 354.053Z" fill="#F7E5C9"/>
<path d="M226.981 352.152C227.46 351.192 227.418 350.214 226.886 349.967C226.354 349.72 225.535 350.298 225.055 351.257C224.576 352.216 224.619 353.194 225.151 353.442C225.682 353.688 226.502 353.111 226.981 352.152Z" fill="#F9A86F"/>
<path d="M226.592 352.036C226.882 351.457 226.856 350.865 226.535 350.716C226.213 350.566 225.718 350.916 225.428 351.495C225.138 352.075 225.164 352.666 225.485 352.816C225.807 352.965 226.303 352.616 226.592 352.036Z" fill="#F2634E"/>
<path d="M226.099 351.933C226.303 351.513 226.281 351.085 226.047 350.976C225.815 350.868 225.459 351.121 225.255 351.541C225.051 351.962 225.074 352.39 225.307 352.498C225.54 352.607 225.895 352.354 226.099 351.933Z" fill="#F9A86F"/>
<path d="M214.371 362.905C213.787 363.156 214.142 365.075 214.413 365.471C214.684 365.868 215.56 365.346 216.374 366.369L217.208 365.493C216.311 363.616 214.955 362.656 214.371 362.905Z" fill="#F9A86F"/>
<path d="M217.394 365.68C216.581 363.929 217.211 361.321 216.977 361.321C216.581 361.321 216.039 362.489 216.247 364.325C216.456 366.16 217.394 365.68 217.394 365.68Z" fill="#F9A86F"/>
<path d="M214.475 363.448C212.64 362.614 211.763 361.612 211.846 361.341C211.93 361.07 214.892 362.593 215.601 363.511C216.31 364.428 214.475 363.448 214.475 363.448Z" fill="#F9A86F"/>
<path d="M214.244 364.533C212.347 363.851 211.5 363.075 211.562 362.799C211.622 362.522 214.698 363.798 215.48 364.655C216.261 365.512 214.244 364.533 214.244 364.533Z" fill="#F9A86F"/>
<path d="M215.064 365.666C213.062 365.43 212.062 364.867 212.058 364.583C212.055 364.3 215.34 364.847 216.295 365.505C217.251 366.163 215.064 365.666 215.064 365.666Z" fill="#F9A86F"/>
<path d="M212.951 359.798C212.877 356.311 217.358 356.86 216.2 354.705C215.043 352.55 208.452 355.254 208.956 353.079C209.494 350.761 214.995 351.656 216.041 350.729C216.937 349.935 216.999 347.744 214.781 347.144C209.461 345.704 211.533 341.776 211.533 341.776C206.184 347.467 213.507 347.956 213.913 348.584C215.341 350.787 208.172 348.965 208.322 353.373C208.408 355.921 213.811 354.261 214.529 355.342C215.173 356.311 211.981 356.693 212.951 359.798Z" fill="#FEECCF"/>
<path d="M188.588 381.917L187.823 377.011C187.823 377.011 189.162 375.891 191.275 375.982C191.275 375.982 192.479 376.943 193.696 377.32C194.913 377.698 193.333 382.529 188.588 381.917Z" fill="#F68859"/>
<path d="M196.032 376.708C195.64 376.846 194.259 377.497 192.656 376.891L192.875 378.258C193.498 378.567 195.011 378.378 195.827 378.086C196.644 377.795 196.424 376.577 196.032 376.708Z" fill="#F68859"/>
<path d="M194.931 378.607C194.535 378.733 193.14 379.356 191.552 378.71L191.74 380.088C192.357 380.408 193.666 380.185 194.489 379.91C195.312 379.636 195.325 378.475 194.931 378.607Z" fill="#F68859"/>
<path d="M193.644 380.368C193.037 380.499 190.911 381.117 188.355 380.505L188.788 381.837C189.786 382.146 191.817 381.917 193.081 381.643C194.345 381.368 194.251 380.242 193.644 380.368Z" fill="#F68859"/>
<path d="M150.125 344.978C151.283 340.066 157.039 337.626 159.98 340.692C162.921 343.758 160.606 347.7 160.606 347.7L150.125 344.978Z" fill="#9E3E2D"/>
<path d="M161.295 358.932C172.858 362.836 178.075 382.495 178.075 382.495L171.354 395.931L161.295 358.932Z" fill="#F6D5A2"/>
<path d="M158.962 361.756C170.524 365.66 175.822 385.496 175.822 385.496L169.1 398.933L158.962 361.756Z" fill="#E7C189"/>
<path d="M178.188 382.735C175.365 381.672 171.42 384.325 169.377 388.659C167.334 392.998 167.966 397.372 170.788 398.436C173.612 399.499 177.556 396.846 179.599 392.512C181.643 388.178 181.01 383.799 178.188 382.735Z" fill="#F14376"/>
<path d="M189.098 376.651C189.098 376.651 173.966 380.796 170.433 392.008L170.28 396.234C175.119 398.463 179.65 396.388 181.11 394.701C182.569 393.009 189.405 380.876 189.405 380.876L189.098 376.651Z" fill="#F9A86F"/>
<path d="M185.025 383.746C180.331 387.829 175.563 389.664 174.375 387.84C174.005 387.268 174.026 386.416 174.373 385.382C172.666 387.246 171.243 389.441 170.433 392.008L170.28 396.234C175.119 398.463 179.65 396.388 181.11 394.701C182.569 393.009 189.405 380.876 189.405 380.876L189.285 379.212C188.175 380.705 186.723 382.271 185.025 383.746Z" fill="#F68859"/>
<path d="M171.047 395.542L145.621 400.516C145.621 400.516 149.401 431.82 159.449 458.686H160.14C160.14 458.686 177.489 430.276 177.826 426.714C178.449 420.127 171.047 395.542 171.047 395.542Z" fill="#6899C6"/>
<path d="M164.706 417.285C164.706 417.285 162.64 437.726 160.013 458L160.138 458.08L167.397 429.047L164.706 417.285Z" fill="#528AAE"/>
<path d="M165.769 406.771C169.798 405.502 173.452 407.554 175.468 411.751C173.703 403.947 171.735 395.01 171.735 395.01L144.873 400.487C144.873 400.487 149.4 431.82 159.448 458.686H159.837C158.167 453.072 147.873 412.403 165.769 406.771Z" fill="#528AAE"/>
<path d="M145.507 407.143C161.637 407.492 172.653 397.926 172.653 397.926C172.653 397.926 174.772 367.16 164.748 360.826C154.725 354.49 150.807 356.678 144.816 362.554C138.824 368.43 145.507 407.143 145.507 407.143Z" fill="#F6D5A2"/>
<path d="M149.959 382.323C150.543 364.637 146.318 361.08 144.816 362.554C138.824 368.429 145.507 407.143 145.507 407.143C148.118 407.2 150.584 407 152.883 406.628C150.876 397.674 149.661 391.322 149.959 382.323Z" fill="#E7C189"/>
<path d="M149.249 358.839C134.398 364.262 124.97 388.624 128.537 393.003L143.033 388.835C145.379 385.605 148.911 381.385 149.938 377.675C152.574 368.138 149.249 358.839 149.249 358.839Z" fill="#F6D5A2"/>
<path d="M150.526 376.062C145.076 384.524 137.42 389.018 133.16 386.434C131.266 385.279 130.326 382.923 130.298 379.945C127.821 385.885 127.051 391.18 128.537 393.003L143.033 388.835C145.379 385.605 148.947 381.345 150.176 377.475C150.342 376.949 150.489 376.423 150.626 375.902C150.592 375.954 150.56 376.005 150.526 376.062Z" fill="#E7C189"/>
<path d="M159.957 459.167H164.018C164.018 459.167 160.933 456.811 160.434 457.051C159.936 457.286 159.957 459.167 159.957 459.167Z" fill="#F6D5A2"/>
<path d="M160.524 459.167H155.772C155.772 459.167 158.621 457.022 159.28 457.24C159.939 457.451 160.524 459.167 160.524 459.167Z" fill="#F6D5A2"/>
<path d="M197.47 373.592H191.339V381.706H197.444L197.47 373.592Z" fill="#F6D5A2"/>
<path d="M191.66 379.482C191.584 379.493 191.509 379.505 191.43 379.505C190.365 379.505 189.502 378.693 189.502 377.692C189.502 376.692 190.365 375.886 191.43 375.886C191.509 375.886 191.584 375.897 191.66 375.903V374.845C191.584 374.839 191.507 374.833 191.43 374.833C189.749 374.833 188.387 376.114 188.387 377.692C188.387 379.27 189.749 380.551 191.43 380.551C191.507 380.551 191.584 380.545 191.66 380.54V379.482Z" fill="#E8C69B"/>
<path d="M143.868 390.751C143.626 387.744 139.545 385.308 134.753 385.308C129.961 385.308 126.272 387.744 126.514 390.751C126.756 393.759 130.837 396.194 135.629 396.194C140.421 396.194 144.11 393.759 143.868 390.751Z" fill="#F14376"/>
<path d="M145.929 407.297C139.401 402.918 129.413 395.885 128.036 392.066C126.08 386.64 137.923 385.308 141.928 388.876C144.348 391.031 148.541 402.226 148.541 402.226L145.929 407.297Z" fill="#F9A86F"/>
<path d="M141.991 403.307C136.296 398.887 134.445 394.587 136.226 392.295C137.455 390.711 140.721 391.048 144.499 392.855C143.59 391.065 142.674 389.539 141.928 388.875C137.923 385.308 126.08 386.64 128.036 392.066C129.413 395.885 138.59 402.437 145.12 406.811C145.12 406.811 142.992 404.084 141.991 403.307Z" fill="#F68859"/>
<path d="M155.381 364.533C159.551 364.533 162.857 362 164.522 360.511C163.651 359.95 162.738 359.474 161.778 359.108C156.082 356.143 152.566 356.51 149.039 358.92C147.894 359.354 146.784 359.899 145.708 360.538C147.386 362.012 151.236 364.533 155.381 364.533Z" fill="#E7C189"/>
<path d="M161.659 359.046C156.945 356.618 153.729 356.492 150.75 357.923C151.302 360.305 153.627 362.093 156.413 362.093C158.739 362.093 160.74 360.844 161.659 359.046Z" fill="#5B3949"/>
<path d="M152.363 357.312L152.939 351.263L160.255 353.28L160.486 358.406C160.576 359.59 154.882 363.845 152.363 357.312Z" fill="#F2634E"/>
<path d="M152.941 351.893C151.968 347.513 152.967 344.513 153.411 343.664C154.102 342.339 158.548 341.494 159.7 342.819C160.852 344.144 162.176 350.503 161.764 356.252C161.649 357.865 156.154 357.868 155.194 357.149C153.812 356.112 153.288 353.448 152.941 351.893Z" fill="#F9A86F"/>
<path d="M166.093 403.364L163.701 404.45L163.816 406.051L166.209 404.965L166.093 403.364Z" fill="#E7C189"/>
<path d="M195.775 379.613C193.995 379.613 192.552 376.926 192.552 373.61L192.553 373.592H191.339V381.706H197.444L197.454 378.727C196.965 379.287 196.391 379.613 195.775 379.613Z" fill="#E8C69B"/>
<path d="M152.587 354.751L153.046 352.164L154.507 350.204C154.507 350.204 155.852 339.91 151.222 342.413C146.591 344.916 152.587 354.751 152.587 354.751Z" fill="#9E3E2D"/>
<path d="M194.219 371.562C194.144 368.075 198.625 368.623 197.467 366.468C196.31 364.314 189.72 367.017 190.224 364.843C190.761 362.525 196.261 363.419 197.308 362.492C198.204 361.699 198.267 359.508 196.048 358.908C190.727 357.468 192.8 353.541 192.8 353.541C187.452 359.231 194.774 359.721 195.18 360.348C196.608 362.551 189.439 360.73 189.589 365.137C189.675 367.686 195.079 366.025 195.797 367.108C196.441 368.075 193.248 368.458 194.219 371.562Z" fill="#FEECCF"/>
<path d="M157.374 348.393C157.358 347.982 157.143 347.653 156.893 347.657C156.642 347.661 156.451 347.998 156.466 348.409C156.482 348.82 156.697 349.149 156.948 349.145C157.198 349.14 157.389 348.803 157.374 348.393Z" fill="#50383D"/>
<path d="M157.038 346.253L155.415 346.498C155.278 346.519 155.187 346.642 155.21 346.774L155.3 347.268C155.324 347.399 155.454 347.489 155.591 347.468L157.214 347.223C157.351 347.203 157.442 347.08 157.418 346.948L157.329 346.454C157.305 346.323 157.175 346.232 157.038 346.253Z" fill="#9E3E2D"/>
<path d="M161.239 347.959C161.223 347.548 161.008 347.218 160.757 347.223C160.507 347.227 160.316 347.564 160.331 347.975C160.347 348.386 160.562 348.715 160.812 348.711C161.063 348.706 161.254 348.369 161.239 347.959Z" fill="#50383D"/>
<path d="M161.778 345.891L160.141 345.897C160.004 345.898 159.895 346.006 159.897 346.14L159.907 346.641C159.91 346.775 160.024 346.882 160.162 346.881L161.799 346.874C161.936 346.874 162.045 346.766 162.043 346.633L162.032 346.131C162.029 345.998 161.916 345.89 161.778 345.891Z" fill="#9E3E2D"/>
<path d="M158.948 348.032C159.546 349.369 159.798 350.235 159.458 350.603C159.246 350.834 158.895 350.816 158.61 350.75L158.608 350.777C158.608 350.777 159.51 351.199 159.887 350.849C160.26 350.503 159.824 349.549 158.948 348.032Z" fill="#F2634E"/>
<path d="M160.17 352.519L156.384 352.081C156.384 352.081 156.227 353.395 157.917 353.958C159.607 354.521 160.17 352.519 160.17 352.519Z" fill="#351F29"/>
<path d="M159.406 353.377C159.69 353.03 159.804 352.625 159.804 352.625L156.748 352.271C156.748 352.271 156.705 352.647 156.956 353.047L159.406 353.377Z" fill="#FDE9CF"/>
<path d="M153.521 349.842C152.934 348.794 152.022 348.188 151.486 348.49C150.949 348.79 150.991 349.885 151.579 350.933C152.166 351.981 153.078 352.587 153.613 352.286C154.15 351.984 154.108 350.891 153.521 349.842Z" fill="#F9A86F"/>
<path d="M153.096 350.107C152.726 349.447 152.153 349.066 151.817 349.256C151.481 349.446 151.509 350.136 151.879 350.796C152.25 351.455 152.823 351.836 153.159 351.646C153.495 351.456 153.467 350.766 153.096 350.107Z" fill="#F2634E"/>
<path d="M153.467 350.525C153.21 350.07 152.815 349.807 152.584 349.939C152.354 350.071 152.375 350.547 152.632 351.003C152.89 351.46 153.285 351.723 153.516 351.59C153.747 351.458 153.725 350.982 153.467 350.525Z" fill="#F9A86F"/>
<path d="M190.927 376.714C190.495 376.857 188.875 377.2 188.173 378.618L185.959 377.737C186.816 376.6 188.983 375.736 190.465 375.599C191.469 375.508 191.364 376.571 190.927 376.714Z" fill="#F9A86F"/>
<path d="M191.401 376.88C191.459 376.016 191.328 375.599 190.879 375.576C190.431 375.559 190.021 376.245 189.963 377.114C189.906 377.977 190.223 378.698 190.673 378.721C191.121 378.738 191.344 377.749 191.401 376.88Z" fill="#F9A86F"/>
<path d="M152.738 405.239C152.289 404.862 150.829 403.352 148.942 403.547L148.266 401.471C149.947 401.591 152.397 402.483 153.576 403.981C154.392 405.022 153.196 405.628 152.738 405.239Z" fill="#F9A86F"/>
<path d="M143.951 404.937L148.299 401.346C148.299 401.346 150.385 401.695 151.969 403.741C151.969 403.741 152.04 405.64 152.655 407.075C153.271 408.516 145.703 410.608 143.951 404.937Z" fill="#F9A86F"/>
<path d="M155.063 408.761C154.629 408.51 152.939 407.743 152.23 405.76L151.149 407.063C151.357 407.898 152.729 409.15 153.642 409.676C154.555 410.208 155.498 409.019 155.063 408.761Z" fill="#F9A86F"/>
<path d="M152.455 409.258C152.026 408.995 150.353 408.195 149.687 406.194L148.578 407.474C148.769 408.309 150.01 409.35 150.911 409.899C151.812 410.448 152.885 409.527 152.455 409.258Z" fill="#F9A86F"/>
<path d="M149.952 409.636C149.47 409.322 147.615 408.321 146.732 406.165L145.656 407.4C145.931 408.292 147.346 409.493 148.356 410.156C149.366 410.814 150.434 409.956 149.952 409.636Z" fill="#F9A86F"/>
<path d="M269.109 358.067C275.834 362.565 282.04 374.805 282.39 377.95C282.74 381.1 273.474 384.073 272.075 379.436C270.676 374.805 269.109 358.067 269.109 358.067Z" fill="#EF326D"/>
<path d="M277.321 390.133L255.11 395.799C255.81 405.707 261.585 459.132 261.585 459.132H262.11C262.11 459.132 281.4 409.247 277.321 390.133Z" fill="#512C33"/>
<path d="M268.944 408.784L263.623 407.686L267.483 410.225C267.483 410.225 262.348 456.714 262.408 457.218L262.819 457.16L268.765 410.488L274.891 405.422L268.944 408.784Z" fill="#401F26"/>
<path d="M261.033 405.845C262.938 402.037 271.612 399.287 277.845 398.36C277.966 395.256 277.818 392.466 277.321 390.133L253.891 395.61C254.591 405.519 261.584 459.132 261.584 459.132H262.008C261.748 451.128 259.34 409.235 261.033 405.845Z" fill="#401F26"/>
<path d="M262.755 459.167H256.601C256.601 459.167 260.931 456.039 261.843 456.199C262.755 456.359 262.755 459.167 262.755 459.167Z" fill="#FDE3C6"/>
<path d="M261.56 459.167H267.738C267.738 459.167 264.218 456.337 263.261 456.479C262.303 456.628 261.56 459.167 261.56 459.167Z" fill="#FDE3C6"/>
<path d="M252.142 361.34C248.383 371.568 253.191 399.996 254.328 400.293C255.464 400.59 276.708 397.269 278.194 395.17C279.68 393.072 274.697 363.788 271.899 360.641C269.101 357.494 265.255 355.046 260.447 355.658C258.618 355.891 252.954 359.131 252.142 361.34Z" fill="#EF326D"/>
<path d="M267.01 375.856C263.116 375.765 257.833 372.163 255.956 366.497C255.52 365.178 250.767 367.898 250.734 372.209C250.639 384.461 253.488 400.07 254.329 400.293C254.702 400.39 257.244 400.099 260.544 399.59C260.52 399.247 260.505 398.898 260.505 398.549C260.505 391.946 265.567 384.936 270.942 384.936C274.389 384.936 276.71 388.795 278.439 392.117C278.183 386.308 276.109 373.872 274.097 366.405C273.992 369.035 271.756 375.971 267.01 375.856Z" fill="#EE2069"/>
<path d="M253.509 388.481C243.346 389.292 244.954 363.145 255.28 358.178C255.28 358.178 258.192 359.981 258.6 363.323C258.928 366.005 255.849 370.596 256.643 372.792C255.507 379.087 253.509 388.481 253.509 388.481Z" fill="#EF326D"/>
<path d="M259.36 361.186C263.561 360.783 267.169 359.586 269.164 358.112C266.759 356.323 263.844 355.226 260.449 355.658C259.422 355.788 257.187 356.867 255.281 358.178C254.006 358.791 252.865 359.73 251.861 360.899C253.954 361.328 256.561 361.455 259.36 361.186Z" fill="#EE2069"/>
<path d="M257.931 366.874C257.841 367.085 257.749 367.303 257.651 367.514C255.539 372.134 252.38 374.77 250.405 373.866C248.478 372.98 248.087 368.909 249.636 364.269C244.832 373.626 245.652 389.109 253.509 388.48C253.509 388.48 255.507 379.086 256.644 372.791C256.144 371.408 257.177 369.081 257.931 366.874Z" fill="#EE2069"/>
<path d="M259.574 370.779C263.334 369.035 278.19 370.705 280.9 373.678C283.61 376.645 283.178 386.605 277.648 384.536C275.343 383.672 259.311 373.844 259.311 373.844L259.574 370.779Z" fill="#F9A86F"/>
<path d="M272.741 376.126C267.372 374.45 261.473 372.072 261.404 372.101L259.311 373.844C259.311 373.844 275.343 383.673 277.648 384.536C281.25 385.886 282.688 382.129 282.505 378.527C279.646 378.041 276.285 377.229 272.741 376.126Z" fill="#F68859"/>
<path d="M277.693 380.088C275.683 375.857 279.147 372.523 279.147 372.523C279.147 372.523 276.103 370.974 269.441 370.322L261.349 371.769L267.353 375.914L277.693 380.088Z" fill="#F68859"/>
<path d="M269.087 358.054C266.696 356.299 263.778 354.968 260.419 355.395C259.695 355.487 258.403 356.314 257.02 357.096C261.992 359.785 266.348 360.129 269.087 358.054Z" fill="#E9C7A5"/>
<path d="M259.662 350.267L259.677 355.613C262.339 357.378 264.588 357.607 266.422 356.561L264.886 350.818L259.662 350.267Z" fill="#F2634E"/>
<path d="M259.669 352.685C255.771 346.172 255.641 341.845 257.126 340.359C258.613 338.873 264.382 337.299 265.475 338.436C266.568 339.573 265.868 342.239 265.868 342.239L259.669 352.685Z" fill="#8E4335"/>
<path d="M260.839 353.145C258.857 350.227 258.524 344.033 259.462 341.86C260.402 339.687 264.47 338.3 266.034 340.654C267.6 343.007 268.601 351.636 268.288 352.963C267.975 354.291 262.028 354.895 260.839 353.145Z" fill="#F9A86F"/>
<path d="M256.943 372.352C251.936 372.735 249.238 379.561 249.291 384.164L250.719 384.587L249.45 385.273C249.45 385.273 251.241 392.277 256.401 389.201C261.562 386.119 256.943 372.352 256.943 372.352Z" fill="#FDE3C6"/>
<path d="M254.627 373.615C254.574 371.66 258.11 368.504 262.13 370.196C264.965 371.391 260.742 373.106 260.742 373.106L254.627 373.615Z" fill="#F9A86F"/>
<path d="M259.87 371.654C258.323 371.654 256.889 371.443 255.993 371.162C255.089 371.9 254.606 372.849 254.627 373.615L260.742 373.106C260.742 373.106 263.319 372.466 263.36 371.54C263.044 371.185 261.129 371.654 259.87 371.654Z" fill="#F68859"/>
<path d="M254.105 387.761C250.608 382.861 252.73 374.29 255.615 372.803C258.5 371.317 270.639 371.157 273.386 373.318C276.133 375.479 275.424 377.492 275.047 377.778C272.6 379.613 255.816 390.156 254.105 387.761Z" fill="#F9A86F"/>
<path d="M252.477 379.292C251.896 382.706 252.152 386.668 253.98 389.23C255.69 391.625 272.6 379.613 275.048 377.777C273.34 378.378 262.48 380.813 252.477 379.292Z" fill="#F68859"/>
<path d="M259.553 340.448C262.092 339.443 260.902 347.8 261.245 349.28L259.315 350.788L258.019 344.097L259.553 340.448Z" fill="#8E4335"/>
<path d="M260.256 348.74C259.869 347.86 259.182 347.294 258.72 347.474C258.258 347.654 258.196 348.514 258.582 349.394C258.968 350.274 259.656 350.84 260.118 350.66C260.58 350.479 260.642 349.62 260.256 348.74Z" fill="#F9A86F"/>
<path d="M259.99 349.048C259.759 348.521 259.348 348.182 259.071 348.29C258.794 348.398 258.758 348.913 258.989 349.439C259.22 349.966 259.631 350.305 259.907 350.197C260.184 350.089 260.221 349.574 259.99 349.048Z" fill="#F2634E"/>
<path d="M260.129 349.622C259.972 349.263 259.691 349.032 259.503 349.106C259.314 349.179 259.289 349.529 259.447 349.888C259.604 350.247 259.884 350.478 260.073 350.405C260.262 350.331 260.287 349.98 260.129 349.622Z" fill="#F9A86F"/>
<path d="M274.709 377.881C276.847 377.337 276.979 372.083 279.439 372.615C279.439 372.615 279.483 371.277 278.504 371.008C277.526 370.745 276.9 370.699 276.9 370.699C276.9 370.699 276.195 369.83 274.749 370.288C272.863 369.07 270.767 372.014 267.83 371.854C264.893 371.7 274.709 377.881 274.709 377.881Z" fill="#F9A86F"/>
<path d="M256.38 372.14L257.067 372.1C257.265 371.442 257.993 370.716 257.993 370.716C257.993 370.716 257.001 370.939 256.38 372.14Z" fill="#F68859"/>
<path d="M258.019 372.008L258.549 371.985C258.702 371.608 259.262 371.191 259.262 371.191C259.262 371.191 258.499 371.322 258.019 372.008Z" fill="#F68859"/>
<path d="M263.597 346.318C263.556 345.833 263.323 345.459 263.076 345.482C262.829 345.505 262.662 345.916 262.703 346.4C262.743 346.885 262.977 347.259 263.224 347.236C263.471 347.213 263.638 346.802 263.597 346.318Z" fill="#462B31"/>
<path d="M263.295 343.814L261.7 344.181C261.566 344.212 261.491 344.38 261.532 344.557L261.685 345.225C261.725 345.401 261.867 345.52 262.002 345.489L263.596 345.122C263.73 345.091 263.806 344.923 263.765 344.746L263.612 344.079C263.571 343.901 263.429 343.783 263.295 343.814Z" fill="#8E4335"/>
<path d="M266.957 345.933C266.916 345.448 266.684 345.074 266.436 345.097C266.19 345.12 266.022 345.531 266.063 346.015C266.103 346.499 266.337 346.873 266.583 346.851C266.831 346.828 266.998 346.417 266.957 345.933Z" fill="#462B31"/>
<path d="M267.079 343.404L265.692 343.522C265.576 343.532 265.493 343.673 265.507 343.837L265.563 344.454C265.578 344.618 265.685 344.743 265.801 344.733L267.189 344.614C267.306 344.604 267.388 344.464 267.374 344.3L267.318 343.682C267.303 343.518 267.196 343.394 267.079 343.404Z" fill="#8E4335"/>
<path d="M265.266 346.625C265.937 347.643 266.239 348.305 265.932 348.59C265.739 348.768 265.395 348.757 265.113 348.708L265.112 348.73C265.112 348.73 266.021 349.045 266.367 348.775C266.709 348.507 266.22 347.779 265.266 346.625Z" fill="#F2634E"/>
<path d="M264.103 350.206L264.111 350.329C264.257 351.333 265.012 352.059 265.796 351.95C266.58 351.841 267.098 350.938 266.951 349.933L266.924 349.813L264.103 350.206Z" fill="#2C171C"/>
<path d="M264.568 351.11L266.57 350.911C266.658 350.657 266.689 350.363 266.644 350.057L266.622 349.958L264.29 350.282L264.297 350.384C264.337 350.658 264.435 350.902 264.568 351.11Z" fill="#FDFBD7"/>
<ellipse cx="430.647" cy="68.2201" rx="25.5697" ry="23.551" fill="#FCCB5A"/>
<ellipse cx="441.413" cy="56.3561" rx="5.38308" ry="4.9581" fill="#FFDE92"/>
</svg>
